# Made in Blockbench 4.7.2
mtllib car1.mtl

o cube
v 0.25 0.4567307692307692 0.625
v 0.25 0.4567307692307692 -0.5
v 0.25 0.25 0.625
v 0.25 0.1875 -0.5
v -0.25 0.4567307692307692 0.625
v -0.25 0.4567307692307692 -0.5
v -0.25 0.25 0.625
v -0.25 0.1875 -0.5
v 0.25 0.4567307692307692 -0.3125
v -0.25 0.4567307692307692 -0.3125
v -0.25 0.1875 -0.3125
v 0.25 0.1875 -0.3125
v 0.25 0.4567307692307692 0.40625
v -0.25 0.4567307692307692 0.40625
v -0.25 0.1875 0.40625
v 0.25 0.1875 0.40625
v -0.25 0.625 -0.0625
v 0.25 0.625 0.34375
v -0.25 0.625 0.34375
v 0.25 0.625 -0.0625
v 0 0.4567307692307692 -0.6875
v 0 0.1875 -0.6875
v 0 0.1875 -0.3125
v 0 0.1875 0.40625
v 0 0.25 0.625
v 0 0.4567307692307692 0.625
v 0 0.4567307692307692 0.40625
v 0 0.625 0.34375
v 0 0.625 -0.0625
v 0 0.4567307692307692 -0.3125
v -0.25 0.1875 0.171875
v -0.25 0.4567307692307692 0.109375
v -0.25 0.625 0.140625
v 0 0.625 0.140625
v 0.25 0.625 0.140625
v 0.25 0.4567307692307692 0.109375
v 0.25 0.1875 0.171875
v 0 0.1875 0.171875
v -0.25 0.3221153846153846 0.109375
v -0.25 0.3221153846153846 -0.3125
v -0.25 0.3221153846153846 -0.5
v 0 0.3221153846153846 -0.6875
v 0.25 0.3221153846153846 -0.5
v 0.25 0.3221153846153846 -0.3125
v 0.25 0.3221153846153846 0.109375
v 0.25 0.3221153846153846 0.40625
v 0.25 0.3221153846153846 0.625
v 0 0.3221153846153846 0.625
v -0.25 0.3221153846153846 0.625
v -0.25 0.3221153846153846 0.40625
vt 0.484375 0.7043265625
vt 0.484375 0.6802890625
vt 0.53125 0.6802890625
vt 0.53125 0.7043265625
vt 0.296875 0.9699515625
vt 0.296875 0.9459140625
vt 0.34375 0.9459140625
vt 0.34375 0.9699515625
vt 0.2734375 0.953125
vt 0.2109375 1
vt 0.2109375 0.90625
vt 0.2734375 0.90625
vt 0.125 0.765625
vt 0.0625 0.765625
vt 0.0625 0.671875
vt 0.125 0.71875
vt 0.359375 0.828125
vt 0.359375 0.8040875000000001
vt 0.421875 0.8040875000000001
vt 0.421875 0.828125
vt 6.938893903907228e-18 0.65625
vt 6.938893903907228e-18 0.6322125000000001
vt 0.078125 0.6322125000000001
vt 0.078125 0.65625
vt 0.2734375 0.7353390625
vt 0.2734375 0.7861203125
vt 0.2109375 0.7861203125
vt 0.2109375 0.7353390625
vt 0.44921875 0.9699515625
vt 0.44921875 0.9459140625
vt 0.5234375 0.9459140625
vt 0.5234375 0.9699515625
vt 0.0625 0.9453125
vt 0.0625 0.88671875
vt 0.125 0.88671875
vt 0.125 0.9453125
vt 0.3046875 0.7043265625
vt 0.3046875 0.6802890625
vt 0.37890625 0.6802890625
vt 0.37890625 0.7043265625
vt 0.421875 0.90625
vt 0.359375 0.90625
vt 0.359375 0.8515625
vt 0.421875 0.8515625
vt 0.5234375 0.9699515625
vt 0.5234375 0.9459140625
vt 0.578125 0.9459140625
vt 0.578125 0.9699515625
vt 0.125 1
vt 0.0625 1
vt 0.0625 0.9453125
vt 0.125 0.9453125
vt 0.25 0.7043265625
vt 0.25 0.6802890625
vt 0.3046875 0.6802890625
vt 0.3046875 0.7043265625
vt 0.5078125 1
vt 0.45703125 1
vt 0.44921875 0.9699515625
vt 0.5234375 0.9699515625
vt 0.234375 0.671875
vt 0.171875 0.671875
vt 0.171875 0.6380078124999999
vt 0.234375 0.6380078124999999
vt 0.3046875 0.7043265625
vt 0.37890625 0.7043265625
vt 0.37109375 0.734375
vt 0.3203125 0.734375
vt 0.2734375 0.90625
vt 0.2109375 0.90625
vt 0.2109375 0.8369015625
vt 0.2734375 0.8369015625
vt 0.25 0.640625
vt 0.25 0.6165875000000001
vt 0.328125 0.6165875000000001
vt 0.328125 0.640625
vt 0 0.71875
vt 0.0625 0.671875
vt 0.0625 0.765625
vt 0 0.765625
vt 0 0.9453125
vt 0 0.88671875
vt 0.0625 0.88671875
vt 0.0625 0.9453125
vt 0 0.9453125
vt 0.0625 0.9453125
vt 0.0625 1
vt 0 1
vt 0.296875 0.828125
vt 0.296875 0.8040875000000001
vt 0.359375 0.8040875000000001
vt 0.359375 0.828125
vt 0.296875 0.8515625
vt 0.359375 0.8515625
vt 0.359375 0.90625
vt 0.296875 0.90625
vt 0.109375 0.6380078124999999
vt 0.171875 0.6380078124999999
vt 0.171875 0.671875
vt 0.109375 0.671875
vt 0.2109375 0.7353390625
vt 0.2109375 0.7861203125
vt 0.1484375 0.7861203125
vt 0.14843750000000003 0.7353390625
vt 0.1484375 0.8369015625
vt 0.2109375 0.8369015625
vt 0.2109375 0.90625
vt 0.1484375 0.90625
vt 0.1484375 0.90625
vt 0.2109375 0.90625
vt 0.2109375 1
vt 0.1484375 0.953125
vt 0.34375 0.9699515625
vt 0.34375 0.9459140625
vt 0.44921875 0.9459140625
vt 0.44921875 0.9699515625
vt 0.34375 0.9699515625
vt 0.44921875 0.9699515625
vt 0.45703125 1
vt 0.40625 1
vt 0.1484375 0.8369015625
vt 0.1484375 0.7861203125
vt 0.2109375 0.7861203125
vt 0.2109375 0.8369015625
vt 0.2109375 0.8369015625
vt 0.2109375 0.7861203125
vt 0.2734375 0.7861203125
vt 0.2734375 0.8369015625
vt 0.421875 0.734375
vt 0.37109375 0.734375
vt 0.37890625 0.7043265625
vt 0.484375 0.7043265625
vt 0.37890625 0.7043265625
vt 0.37890625 0.6802890625
vt 0.484375 0.6802890625
vt 0.484375 0.7043265625
vt 0.125 0.765625
vt 0.125 0.88671875
vt 0.0625 0.88671875
vt 0.0625 0.765625
vt 0.0625 0.765625
vt 0.0625 0.88671875
vt 0 0.88671875
vt 0 0.765625
vt 0.46484375 0.921875
vt 0.44921875 0.9459140625
vt 0.34375 0.9459140625
vt 0.34375 0.921875
vt 0.34375 0.921875
vt 0.34375 0.9459140625
vt 0.296875 0.9459140625
vt 0.296875 0.921875
vt 0.328125 0.5925484375
vt 0.328125 0.6165875000000001
vt 0.25 0.6165875000000001
vt 0.25 0.5925484375
vt 0.078125 0.6081734375
vt 0.078125 0.6322125000000001
vt 0 0.6322125000000001
vt 0 0.6081734375
vt 0.53125 0.65625
vt 0.53125 0.6802890625
vt 0.484375 0.6802890625
vt 0.484375 0.65625
vt 0.484375 0.65625
vt 0.484375 0.6802890625
vt 0.37890625 0.6802890625
vt 0.36328125 0.65625
vt 0.36328125 0.65625
vt 0.37890625 0.6802890625
vt 0.3046875 0.6802890625
vt 0.3046875 0.65625
vt 0.3046875 0.65625
vt 0.3046875 0.6802890625
vt 0.25 0.6802890625
vt 0.25 0.65625
vt 0.421875 0.7800484375
vt 0.421875 0.8040875000000001
vt 0.359375 0.8040875000000001
vt 0.359375 0.7800484375
vt 0.359375 0.7800484375
vt 0.359375 0.8040875000000001
vt 0.296875 0.8040875000000001
vt 0.296875 0.7800484375
vt 0.578125 0.921875
vt 0.578125 0.9459140625
vt 0.5234375 0.9459140625
vt 0.5234375 0.921875
vt 0.5234375 0.921875
vt 0.5234375 0.9459140625
vt 0.44921875 0.9459140625
vt 0.46484375 0.921875
vn 1 0 0
vn -1 0 0
vn 0 1 0
vn 0 -1 0
vn 0 0 1
vn 0.6000000000000001 0 -0.8
vn 0 1 0
vn -1 0 0
vn 0 -1 0
vn 1 0 0
vn 0 1 0
vn -1 0 0
vn 0 -0.9615239476408232 0.27472112789737807
vn 1 0 0
vn -1 0 0
vn 0 0.3481865296036271 0.9374252720097653
vn 1 0 0
vn 0 0.8295877476194152 -0.5583763685899911
vn -0.6000000000000001 0 -0.8
vn 0 -1 0
vn 0 -1 0
vn 0 -0.9615239476408232 0.27472112789737807
vn 0 0 1
vn 0 1 0
vn 0 0.3481865296036271 0.9374252720097653
vn 0 1 0
vn 0 0.8295877476194152 -0.5583763685899911
vn 0 1 0
vn -1 0 0
vn -1 0 0
vn 0 1 0
vn 0 1 0
vn 1 0 0
vn 1 0 0
vn 0 -1 0
vn 0 -1 0
vn -1 0 0
vn -1 0 0
vn -0.6 0 -0.8
vn 0.6 0 -0.8
vn 1 0 0
vn 1 0 0
vn 1 0 0
vn 1 0 0
vn 0 0 1
vn 0 0 1
vn -1 0 0
vn -1 0 0
usemtl m_bc12d8de-9981-e214-4d34-715e7fa9932f
f 9/1/1 44/2/1 43/3/1 2/4/1
f 6/5/2 41/6/2 40/7/2 10/8/2
f 2/9/3 21/10/3 30/11/3 9/12/3
f 12/13/4 23/14/4 22/15/4 4/16/4
f 26/17/5 48/18/5 47/19/5 1/20/5
f 2/21/6 43/22/6 42/23/6 21/24/6
f 18/25/7 35/26/7 34/27/7 28/28/7
f 32/29/8 39/30/8 50/31/8 14/32/8
f 24/33/9 38/34/9 37/35/9 16/36/9
f 13/37/10 46/38/10 45/39/10 36/40/10
f 13/41/11 27/42/11 26/43/11 1/44/11
f 14/45/12 50/46/12 49/47/12 5/48/12
f 3/49/13 25/50/13 24/51/13 16/52/13
f 1/53/14 47/54/14 46/55/14 13/56/14
f 19/57/15 33/58/15 32/59/15 14/60/15
f 18/61/16 28/62/16 27/63/16 13/64/16
f 13/65/17 36/66/17 35/67/17 18/68/17
f 9/69/18 30/70/18 29/71/18 20/72/18
f 21/73/19 42/74/19 41/75/19 6/76/19
f 8/77/20 22/78/20 23/79/20 11/80/20
f 15/81/21 31/82/21 38/83/21 24/84/21
f 15/85/22 24/86/22 25/87/22 7/88/22
f 5/89/23 49/90/23 48/91/23 26/92/23
f 5/93/24 26/94/24 27/95/24 14/96/24
f 14/97/25 27/98/25 28/99/25 19/100/25
f 28/101/26 34/102/26 33/103/26 19/104/26
f 17/105/27 29/106/27 30/107/27 10/108/27
f 10/109/28 30/110/28 21/111/28 6/112/28
f 10/113/29 40/114/29 39/115/29 32/116/29
f 10/117/30 32/118/30 33/119/30 17/120/30
f 17/121/31 33/122/31 34/123/31 29/124/31
f 29/125/32 34/126/32 35/127/32 20/128/32
f 20/129/33 35/130/33 36/131/33 9/132/33
f 36/133/34 45/134/34 44/135/34 9/136/34
f 12/137/35 37/138/35 38/139/35 23/140/35
f 23/141/36 38/142/36 31/143/36 11/144/36
f 31/145/37 39/146/37 40/147/37 11/148/37
f 11/149/38 40/150/38 41/151/38 8/152/38
f 8/153/39 41/154/39 42/155/39 22/156/39
f 22/157/40 42/158/40 43/159/40 4/160/40
f 4/161/41 43/162/41 44/163/41 12/164/41
f 12/165/42 44/166/42 45/167/42 37/168/42
f 37/169/43 45/170/43 46/171/43 16/172/43
f 16/173/44 46/174/44 47/175/44 3/176/44
f 3/177/45 47/178/45 48/179/45 25/180/45
f 25/181/46 48/182/46 49/183/46 7/184/46
f 7/185/47 49/186/47 50/187/47 15/188/47
f 15/189/48 50/190/48 39/191/48 31/192/48