ply
format ascii 1.0
comment Created by Blender 3.0.0 - www.blender.org
element vertex 227
property float x
property float y
property float z
property float nx
property float ny
property float nz
property float s
property float t
property uchar red
property uchar green
property uchar blue
property uchar alpha
element face 64
property list uchar uint vertex_indices
end_header
2.386232 0.000000 -2.386232 0.000000 1.000000 -0.000000 0.875000 0.875000 255 0 2 255
3.181643 0.000000 -2.386232 0.000000 1.000000 -0.000000 1.000000 0.875000 255 0 2 255
3.181643 0.000000 -3.181643 0.000000 1.000000 -0.000000 1.000000 1.000000 255 0 2 255
2.386232 0.000000 -3.181643 0.000000 1.000000 -0.000000 0.875000 1.000000 255 0 2 255
-0.795411 0.000000 -2.386232 -0.403020 0.821675 -0.403020 0.375000 0.875000 255 0 2 255
0.000000 0.780277 -2.386232 -0.403020 0.821675 -0.403020 0.500000 0.875000 255 0 2 255
0.000000 0.000000 -3.181643 -0.403020 0.821675 -0.403020 0.500000 1.000000 255 0 2 255
-0.795411 0.000000 -3.181643 -0.403020 0.821675 -0.403020 0.375000 1.000000 255 0 2 255
-0.795411 0.354786 0.795411 -0.222195 0.949346 0.222195 0.375000 0.375000 255 0 2 255
0.000000 0.000000 0.795411 -0.222195 0.949346 0.222195 0.500000 0.375000 255 0 2 255
0.000000 0.727118 0.000000 -0.222195 0.949346 0.222195 0.500000 0.500000 255 0 2 255
-0.795411 0.000000 0.000000 -0.222195 0.949346 0.222195 0.375000 0.500000 255 0 2 255
2.386232 0.000000 0.795411 0.000000 0.640798 0.767710 0.875000 0.375000 255 0 2 255
3.181643 0.000000 0.795411 0.000000 0.640798 0.767710 1.000000 0.375000 255 0 2 255
3.181643 0.952944 0.000000 0.000000 0.640798 0.767710 1.000000 0.500000 255 0 2 255
2.386232 0.952944 0.000000 0.000000 0.640798 0.767710 0.875000 0.500000 255 0 2 255
0.795411 0.000000 0.795411 0.383859 0.839824 0.383859 0.625000 0.375000 255 0 2 255
1.590822 0.000000 0.795411 0.383859 0.839824 0.383859 0.750000 0.375000 255 0 2 255
1.590822 0.000000 0.000000 0.383859 0.839824 0.383859 0.750000 0.500000 255 0 2 255
0.795411 0.727118 0.000000 0.383859 0.839824 0.383859 0.625000 0.500000 255 0 2 255
0.795411 0.000000 2.386232 -0.491411 0.870928 0.000000 0.625000 0.125000 255 0 2 255
1.590822 0.448802 2.386232 -0.491411 0.870928 0.000000 0.750000 0.125000 255 0 2 255
1.590822 0.448802 1.590822 -0.491411 0.870928 0.000000 0.750000 0.250000 255 0 2 255
0.795411 0.000000 1.590822 -0.491411 0.870928 0.000000 0.625000 0.250000 255 0 2 255
2.386232 0.448802 2.386232 0.491411 0.870928 0.000000 0.875000 0.125000 255 0 2 255
3.181643 0.000000 2.386232 0.491411 0.870928 0.000000 1.000000 0.125000 255 0 2 255
3.181643 0.000000 1.590822 0.491411 0.870928 0.000000 1.000000 0.250000 255 0 2 255
2.386232 0.448802 1.590822 0.491411 0.870928 0.000000 0.875000 0.250000 255 0 2 255
-2.386232 0.000000 0.795411 -0.213303 0.956426 0.199376 0.125000 0.375000 255 0 2 255
-1.590822 0.354786 0.795411 -0.213303 0.956426 0.199376 0.250000 0.375000 255 0 2 255
-1.590822 0.343203 0.000000 -0.213303 0.956426 0.199376 0.250000 0.500000 255 0 2 255
-2.386232 0.343203 0.000000 -0.213303 0.956426 0.199376 0.125000 0.500000 255 0 2 255
-2.386232 0.000000 2.386232 -0.212692 0.953690 0.212692 0.125000 0.125000 255 0 2 255
-1.590822 0.000000 2.386232 -0.212692 0.953690 0.212692 0.250000 0.125000 255 0 2 255
-1.590822 0.354786 1.590822 -0.212692 0.953690 0.212692 0.250000 0.250000 255 0 2 255
-2.386232 0.000000 1.590822 -0.212692 0.953690 0.212692 0.125000 0.250000 255 0 2 255
-0.795411 0.000000 2.386232 0.212692 0.953690 0.212692 0.375000 0.125000 255 0 2 255
0.000000 0.000000 2.386232 0.212692 0.953690 0.212692 0.500000 0.125000 255 0 2 255
0.000000 0.000000 1.590822 0.212692 0.953690 0.212692 0.500000 0.250000 255 0 2 255
-0.795411 0.354786 1.590822 0.212692 0.953690 0.212692 0.375000 0.250000 255 0 2 255
-2.386232 0.000000 -2.386232 0.000000 1.000000 -0.000000 0.125000 0.875000 255 0 2 255
-1.590822 0.000000 -2.386232 0.000000 1.000000 -0.000000 0.250000 0.875000 255 0 2 255
-1.590822 0.000000 -3.181643 0.000000 1.000000 -0.000000 0.250000 1.000000 255 0 2 255
-2.386232 0.000000 -3.181643 0.000000 1.000000 -0.000000 0.125000 1.000000 255 0 2 255
-2.386232 0.343203 -0.795411 -0.706526 0.649781 -0.280367 0.125000 0.625000 255 0 2 255
-1.590822 1.208077 -0.795411 -0.706526 0.649781 -0.280367 0.250000 0.625000 255 0 2 255
-1.590822 0.864874 -1.590822 -0.706526 0.649781 -0.280367 0.250000 0.750000 255 0 2 255
-2.386232 0.000000 -1.590822 -0.706526 0.649781 -0.280367 0.125000 0.750000 255 0 2 255
-0.795411 0.864874 -0.795411 -0.636794 0.770604 0.025750 0.375000 0.625000 255 0 2 255
0.000000 1.495589 -0.795411 -0.636794 0.770604 0.025750 0.500000 0.625000 255 0 2 255
0.000000 1.548747 -1.590822 -0.636794 0.770604 0.025750 0.500000 0.750000 255 0 2 255
-0.795411 0.864874 -1.590822 -0.636794 0.770604 0.025750 0.375000 0.750000 255 0 2 255
0.795411 0.780277 -2.386232 0.403020 0.821675 -0.403020 0.625000 0.875000 255 0 2 255
1.590822 0.000000 -2.386232 0.403020 0.821675 -0.403020 0.750000 0.875000 255 0 2 255
1.590822 0.000000 -3.181643 0.403020 0.821675 -0.403020 0.750000 1.000000 255 0 2 255
0.795411 0.000000 -3.181643 0.403020 0.821675 -0.403020 0.625000 1.000000 255 0 2 255
0.795411 1.495589 -0.795411 0.886183 0.463076 0.015474 0.625000 0.625000 255 0 2 255
1.590822 0.000000 -0.795411 0.886183 0.463076 0.015474 0.750000 0.625000 255 0 2 255
1.590822 0.000000 -1.590822 0.886183 0.463076 0.015474 0.750000 0.750000 255 0 2 255
0.795411 1.548747 -1.590822 0.886183 0.463076 0.015474 0.625000 0.750000 255 0 2 255
2.386232 0.952944 -0.795411 0.000000 0.640798 -0.767710 0.875000 0.625000 255 0 2 255
3.181643 0.952944 -0.795411 0.000000 0.640798 -0.767710 1.000000 0.625000 255 0 2 255
3.181643 0.000000 -1.590822 0.000000 0.640798 -0.767710 1.000000 0.750000 255 0 2 255
2.386232 0.000000 -1.590822 0.000000 0.640798 -0.767710 0.875000 0.750000 255 0 2 255
1.590822 0.000000 -0.795411 -0.457064 0.763011 -0.457064 0.750000 0.625000 255 0 2 255
2.386232 0.952944 -0.795411 -0.457064 0.763011 -0.457064 0.875000 0.625000 255 0 2 255
2.386232 0.000000 -1.590822 -0.457064 0.763011 -0.457064 0.875000 0.750000 255 0 2 255
1.590822 0.000000 -1.590822 -0.457064 0.763011 -0.457064 0.750000 0.750000 255 0 2 255
1.590822 0.000000 0.000000 -0.767710 0.640798 0.000000 0.750000 0.500000 255 0 2 255
2.386232 0.952944 0.000000 -0.767710 0.640798 0.000000 0.875000 0.500000 255 0 2 255
2.386232 0.952944 -0.795411 -0.767710 0.640798 0.000000 0.875000 0.625000 255 0 2 255
1.590822 0.000000 -0.795411 -0.767710 0.640798 0.000000 0.750000 0.625000 255 0 2 255
2.386232 0.952944 0.000000 0.000000 1.000000 -0.000000 0.875000 0.500000 255 0 2 255
3.181643 0.952944 0.000000 0.000000 1.000000 -0.000000 1.000000 0.500000 255 0 2 255
3.181643 0.952944 -0.795411 0.000000 1.000000 -0.000000 1.000000 0.625000 255 0 2 255
2.386232 0.952944 -0.795411 0.000000 1.000000 -0.000000 0.875000 0.625000 255 0 2 255
0.000000 1.495589 -0.795411 0.000000 0.997774 0.066682 0.500000 0.625000 255 0 2 255
0.795411 1.495589 -0.795411 0.000000 0.997774 0.066682 0.625000 0.625000 255 0 2 255
0.795411 1.548747 -1.590822 0.000000 0.997774 0.066682 0.625000 0.750000 255 0 2 255
0.000000 1.548747 -1.590822 0.000000 0.997774 0.066682 0.500000 0.750000 255 0 2 255
0.000000 0.727118 0.000000 0.000000 0.719181 0.694823 0.500000 0.500000 255 0 2 255
0.795411 0.727118 0.000000 0.000000 0.719181 0.694823 0.625000 0.500000 255 0 2 255
0.795411 1.495589 -0.795411 0.000000 0.719181 0.694823 0.625000 0.625000 255 0 2 255
0.000000 1.495589 -0.795411 0.000000 0.719181 0.694823 0.500000 0.625000 255 0 2 255
0.795411 0.727118 0.000000 0.782833 0.560284 0.270654 0.625000 0.500000 255 0 2 255
1.590822 0.000000 0.000000 0.782833 0.560284 0.270654 0.750000 0.500000 255 0 2 255
1.590822 0.000000 -0.795411 0.782833 0.560284 0.270654 0.750000 0.625000 255 0 2 255
0.795411 1.495589 -0.795411 0.782833 0.560284 0.270654 0.625000 0.625000 255 0 2 255
0.000000 0.780277 -2.386232 0.000000 0.713865 -0.700283 0.500000 0.875000 255 0 2 255
0.795411 0.780277 -2.386232 0.000000 0.713865 -0.700283 0.625000 0.875000 255 0 2 255
0.795411 0.000000 -3.181643 0.000000 0.713865 -0.700283 0.625000 1.000000 255 0 2 255
0.000000 0.000000 -3.181643 0.000000 0.713865 -0.700283 0.500000 1.000000 255 0 2 255
0.000000 1.548747 -1.590822 0.000000 0.719181 -0.694823 0.500000 0.750000 255 0 2 255
0.795411 1.548747 -1.590822 0.000000 0.719181 -0.694823 0.625000 0.750000 255 0 2 255
0.795411 0.780277 -2.386232 0.000000 0.719181 -0.694823 0.625000 0.875000 255 0 2 255
0.000000 0.780277 -2.386232 0.000000 0.719181 -0.694823 0.500000 0.875000 255 0 2 255
0.795411 1.548747 -1.590822 0.796714 0.544189 -0.262879 0.625000 0.750000 255 0 2 255
1.590822 0.000000 -1.590822 0.796714 0.544189 -0.262879 0.750000 0.750000 255 0 2 255
1.590822 0.000000 -2.386232 0.796714 0.544189 -0.262879 0.750000 0.875000 255 0 2 255
0.795411 0.780277 -2.386232 0.796714 0.544189 -0.262879 0.625000 0.875000 255 0 2 255
-1.590822 1.208077 -0.795411 0.206349 0.956473 -0.206349 0.250000 0.625000 255 0 2 255
-0.795411 0.864874 -0.795411 0.206349 0.956473 -0.206349 0.375000 0.625000 255 0 2 255
-0.795411 0.864874 -1.590822 0.206349 0.956473 -0.206349 0.375000 0.750000 255 0 2 255
-1.590822 0.864874 -1.590822 0.206349 0.956473 -0.206349 0.250000 0.750000 255 0 2 255
-1.590822 0.343203 0.000000 0.280367 0.649781 0.706526 0.250000 0.500000 255 0 2 255
-0.795411 0.000000 0.000000 0.280367 0.649781 0.706526 0.375000 0.500000 255 0 2 255
-0.795411 0.864874 -0.795411 0.280367 0.649781 0.706526 0.375000 0.625000 255 0 2 255
-1.590822 1.208077 -0.795411 0.280367 0.649781 0.706526 0.250000 0.625000 255 0 2 255
-0.795411 0.000000 0.000000 -0.511671 0.599468 0.615492 0.375000 0.500000 255 0 2 255
0.000000 0.727118 0.000000 -0.511671 0.599468 0.615492 0.500000 0.500000 255 0 2 255
0.000000 1.495589 -0.795411 -0.511671 0.599468 0.615492 0.500000 0.625000 255 0 2 255
-0.795411 0.864874 -0.795411 -0.511671 0.599468 0.615492 0.375000 0.625000 255 0 2 255
-3.181643 0.000000 -0.795411 -0.206349 0.956473 -0.206349 0.000000 0.625000 255 0 2 255
-2.386232 0.343203 -0.795411 -0.206349 0.956473 -0.206349 0.125000 0.625000 255 0 2 255
-2.386232 0.000000 -1.590822 -0.206349 0.956473 -0.206349 0.125000 0.750000 255 0 2 255
-3.181643 0.000000 -1.590822 -0.206349 0.956473 -0.206349 0.000000 0.750000 255 0 2 255
-3.181643 0.000000 0.000000 -0.396174 0.918176 0.000000 0.000000 0.500000 255 0 2 255
-2.386232 0.343203 0.000000 -0.396174 0.918176 0.000000 0.125000 0.500000 255 0 2 255
-2.386232 0.343203 -0.795411 -0.396174 0.918176 0.000000 0.125000 0.625000 255 0 2 255
-3.181643 0.000000 -0.795411 -0.396174 0.918176 0.000000 0.000000 0.625000 255 0 2 255
-2.386232 0.343203 0.000000 -0.430999 0.792767 0.430999 0.125000 0.500000 255 0 2 255
-1.590822 0.343203 0.000000 -0.430999 0.792767 0.430999 0.250000 0.500000 255 0 2 255
-1.590822 1.208077 -0.795411 -0.430999 0.792767 0.430999 0.250000 0.625000 255 0 2 255
-2.386232 0.343203 -0.795411 -0.430999 0.792767 0.430999 0.125000 0.625000 255 0 2 255
-3.181643 0.000000 -2.386232 0.000000 1.000000 -0.000000 0.000000 0.875000 255 0 2 255
-3.181643 0.000000 -3.181643 0.000000 1.000000 -0.000000 0.000000 1.000000 255 0 2 255
-3.181643 0.000000 -1.590822 0.000000 1.000000 -0.000000 0.000000 0.750000 255 0 2 255
-2.386232 0.000000 -1.590822 0.000000 1.000000 -0.000000 0.125000 0.750000 255 0 2 255
-2.386232 0.000000 -1.590822 -0.430999 0.792767 -0.430999 0.125000 0.750000 255 0 2 255
-1.590822 0.864874 -1.590822 -0.430999 0.792767 -0.430999 0.250000 0.750000 255 0 2 255
-1.590822 0.000000 -2.386232 -0.430999 0.792767 -0.430999 0.250000 0.875000 255 0 2 255
-2.386232 0.000000 -2.386232 -0.430999 0.792767 -0.430999 0.125000 0.875000 255 0 2 255
-1.590822 0.000000 2.386232 0.000000 0.913270 0.407356 0.250000 0.125000 255 0 2 255
-0.795411 0.000000 2.386232 0.000000 0.913270 0.407356 0.375000 0.125000 255 0 2 255
-0.795411 0.354786 1.590822 0.000000 0.913270 0.407356 0.375000 0.250000 255 0 2 255
-1.590822 0.354786 1.590822 0.000000 0.913270 0.407356 0.250000 0.250000 255 0 2 255
-1.590822 0.000000 3.181643 0.000000 1.000000 -0.000000 0.250000 0.000000 255 0 2 255
-0.795411 0.000000 3.181643 0.000000 1.000000 -0.000000 0.375000 0.000000 255 0 2 255
-0.795411 0.000000 2.386232 0.000000 1.000000 -0.000000 0.375000 0.125000 255 0 2 255
-1.590822 0.000000 2.386232 0.000000 1.000000 -0.000000 0.250000 0.125000 255 0 2 255
0.000000 0.000000 3.181643 0.000000 1.000000 -0.000000 0.500000 0.000000 255 0 2 255
0.000000 0.000000 2.386232 0.000000 1.000000 -0.000000 0.500000 0.125000 255 0 2 255
-3.181643 0.000000 2.386232 0.000000 1.000000 -0.000000 0.000000 0.125000 255 0 2 255
-2.386232 0.000000 2.386232 0.000000 1.000000 -0.000000 0.125000 0.125000 255 0 2 255
-2.386232 0.000000 1.590822 0.000000 1.000000 -0.000000 0.125000 0.250000 255 0 2 255
-3.181643 0.000000 1.590822 0.000000 1.000000 -0.000000 0.000000 0.250000 255 0 2 255
-3.181643 0.000000 3.181643 0.000000 1.000000 -0.000000 0.000000 0.000000 255 0 2 255
-2.386232 0.000000 3.181643 0.000000 1.000000 -0.000000 0.125000 0.000000 255 0 2 255
-3.181643 0.000000 0.795411 -0.206349 0.956473 0.206349 0.000000 0.375000 255 0 2 255
-2.386232 0.000000 0.795411 -0.206349 0.956473 0.206349 0.125000 0.375000 255 0 2 255
-2.386232 0.343203 0.000000 -0.206349 0.956473 0.206349 0.125000 0.500000 255 0 2 255
-3.181643 0.000000 0.000000 -0.206349 0.956473 0.206349 0.000000 0.500000 255 0 2 255
-2.386232 0.000000 0.795411 0.000000 1.000000 -0.000000 0.125000 0.375000 255 0 2 255
-3.181643 0.000000 0.795411 0.000000 1.000000 -0.000000 0.000000 0.375000 255 0 2 255
-2.386232 0.000000 1.590822 -0.407356 0.913270 0.000000 0.125000 0.250000 255 0 2 255
-1.590822 0.354786 1.590822 -0.407356 0.913270 0.000000 0.250000 0.250000 255 0 2 255
-1.590822 0.354786 0.795411 -0.407356 0.913270 0.000000 0.250000 0.375000 255 0 2 255
-2.386232 0.000000 0.795411 -0.407356 0.913270 0.000000 0.125000 0.375000 255 0 2 255
1.590822 0.448802 2.386232 0.000000 1.000000 -0.000000 0.750000 0.125000 255 0 2 255
2.386232 0.448802 2.386232 0.000000 1.000000 -0.000000 0.875000 0.125000 255 0 2 255
2.386232 0.448802 1.590822 0.000000 1.000000 -0.000000 0.875000 0.250000 255 0 2 255
1.590822 0.448802 1.590822 0.000000 1.000000 -0.000000 0.750000 0.250000 255 0 2 255
1.590822 0.000000 3.181643 0.000000 0.870928 0.491411 0.750000 0.000000 255 0 2 255
2.386232 0.000000 3.181643 0.000000 0.870928 0.491411 0.875000 0.000000 255 0 2 255
2.386232 0.448802 2.386232 0.000000 0.870928 0.491411 0.875000 0.125000 255 0 2 255
1.590822 0.448802 2.386232 0.000000 0.870928 0.491411 0.750000 0.125000 255 0 2 255
2.386232 0.000000 3.181643 0.262034 0.928804 0.262034 0.875000 0.000000 255 0 2 255
3.181643 0.000000 3.181643 0.262034 0.928804 0.262034 1.000000 0.000000 255 0 2 255
3.181643 0.000000 2.386232 0.262034 0.928804 0.262034 1.000000 0.125000 255 0 2 255
2.386232 0.448802 2.386232 0.262034 0.928804 0.262034 0.875000 0.125000 255 0 2 255
0.795411 0.000000 2.386232 0.000000 1.000000 -0.000000 0.625000 0.125000 255 0 2 255
0.795411 0.000000 1.590822 0.000000 1.000000 -0.000000 0.625000 0.250000 255 0 2 255
0.000000 0.000000 1.590822 0.000000 1.000000 -0.000000 0.500000 0.250000 255 0 2 255
0.795411 0.000000 3.181643 0.000000 1.000000 -0.000000 0.625000 0.000000 255 0 2 255
0.795411 0.000000 3.181643 -0.262034 0.928804 0.262034 0.625000 0.000000 255 0 2 255
1.590822 0.000000 3.181643 -0.262034 0.928804 0.262034 0.750000 0.000000 255 0 2 255
1.590822 0.448802 2.386232 -0.262034 0.928804 0.262034 0.750000 0.125000 255 0 2 255
0.795411 0.000000 2.386232 -0.262034 0.928804 0.262034 0.625000 0.125000 255 0 2 255
0.000000 0.000000 0.795411 0.000000 0.738082 0.674711 0.500000 0.375000 255 0 2 255
0.795411 0.000000 0.795411 0.000000 0.738082 0.674711 0.625000 0.375000 255 0 2 255
0.795411 0.727118 0.000000 0.000000 0.738082 0.674711 0.625000 0.500000 255 0 2 255
0.000000 0.727118 0.000000 0.000000 0.738082 0.674711 0.500000 0.500000 255 0 2 255
0.795411 0.000000 0.795411 0.000000 1.000000 -0.000000 0.625000 0.375000 255 0 2 255
0.000000 0.000000 0.795411 0.000000 1.000000 -0.000000 0.500000 0.375000 255 0 2 255
0.795411 0.000000 1.590822 -0.262034 0.928804 -0.262034 0.625000 0.250000 255 0 2 255
1.590822 0.448802 1.590822 -0.262034 0.928804 -0.262034 0.750000 0.250000 255 0 2 255
1.590822 0.000000 0.795411 -0.262034 0.928804 -0.262034 0.750000 0.375000 255 0 2 255
0.795411 0.000000 0.795411 -0.262034 0.928804 -0.262034 0.625000 0.375000 255 0 2 255
1.590822 0.000000 0.795411 -0.457064 0.763011 0.457064 0.750000 0.375000 255 0 2 255
2.386232 0.000000 0.795411 -0.457064 0.763011 0.457064 0.875000 0.375000 255 0 2 255
2.386232 0.952944 0.000000 -0.457064 0.763011 0.457064 0.875000 0.500000 255 0 2 255
1.590822 0.000000 0.000000 -0.457064 0.763011 0.457064 0.750000 0.500000 255 0 2 255
1.590822 0.448802 1.590822 0.000000 0.870928 -0.491411 0.750000 0.250000 255 0 2 255
2.386232 0.448802 1.590822 0.000000 0.870928 -0.491411 0.875000 0.250000 255 0 2 255
2.386232 0.000000 0.795411 0.000000 0.870928 -0.491411 0.875000 0.375000 255 0 2 255
1.590822 0.000000 0.795411 0.000000 0.870928 -0.491411 0.750000 0.375000 255 0 2 255
2.386232 0.448802 1.590822 0.262034 0.928804 -0.262034 0.875000 0.250000 255 0 2 255
3.181643 0.000000 1.590822 0.262034 0.928804 -0.262034 1.000000 0.250000 255 0 2 255
3.181643 0.000000 0.795411 0.262034 0.928804 -0.262034 1.000000 0.375000 255 0 2 255
2.386232 0.000000 0.795411 0.262034 0.928804 -0.262034 0.875000 0.375000 255 0 2 255
-1.590822 0.354786 0.795411 0.205739 0.953644 -0.219625 0.250000 0.375000 255 0 2 255
-0.795411 0.354786 0.795411 0.205739 0.953644 -0.219625 0.375000 0.375000 255 0 2 255
-0.795411 0.000000 0.000000 0.205739 0.953644 -0.219625 0.375000 0.500000 255 0 2 255
-1.590822 0.343203 0.000000 0.205739 0.953644 -0.219625 0.250000 0.500000 255 0 2 255
-1.590822 0.354786 1.590822 0.000000 1.000000 -0.000000 0.250000 0.250000 255 0 2 255
-0.795411 0.354786 1.590822 0.000000 1.000000 -0.000000 0.375000 0.250000 255 0 2 255
-0.795411 0.354786 0.795411 0.000000 1.000000 -0.000000 0.375000 0.375000 255 0 2 255
-1.590822 0.354786 0.795411 0.000000 1.000000 -0.000000 0.250000 0.375000 255 0 2 255
-0.795411 0.354786 1.590822 0.407355 0.913270 0.000000 0.375000 0.250000 255 0 2 255
0.000000 0.000000 1.590822 0.407355 0.913270 0.000000 0.500000 0.250000 255 0 2 255
0.000000 0.000000 0.795411 0.407355 0.913270 0.000000 0.500000 0.375000 255 0 2 255
-0.795411 0.354786 0.795411 0.407355 0.913270 0.000000 0.375000 0.375000 255 0 2 255
-0.795411 0.000000 -2.386232 0.000000 1.000000 -0.000000 0.375000 0.875000 255 0 2 255
-0.795411 0.000000 -3.181643 0.000000 1.000000 -0.000000 0.375000 1.000000 255 0 2 255
-1.590822 0.864874 -1.590822 0.000000 0.676931 -0.736047 0.250000 0.750000 255 0 2 255
-0.795411 0.864874 -1.590822 0.000000 0.676931 -0.736047 0.375000 0.750000 255 0 2 255
-0.795411 0.000000 -2.386232 0.000000 0.676931 -0.736047 0.375000 0.875000 255 0 2 255
-1.590822 0.000000 -2.386232 0.000000 0.676931 -0.736047 0.250000 0.875000 255 0 2 255
-0.795411 0.864874 -1.590822 -0.540344 0.587092 -0.602785 0.375000 0.750000 255 0 2 255
0.000000 1.548747 -1.590822 -0.540344 0.587092 -0.602785 0.500000 0.750000 255 0 2 255
0.000000 0.780277 -2.386232 -0.540344 0.587092 -0.602785 0.500000 0.875000 255 0 2 255
-0.795411 0.000000 -2.386232 -0.540344 0.587092 -0.602785 0.375000 0.875000 255 0 2 255
1.590822 0.000000 -2.386232 0.000000 1.000000 -0.000000 0.750000 0.875000 255 0 2 255
1.590822 0.000000 -3.181643 0.000000 1.000000 -0.000000 0.750000 1.000000 255 0 2 255
1.590822 0.000000 -1.590822 0.000000 1.000000 -0.000000 0.750000 0.750000 255 0 2 255
2.386232 0.000000 -1.590822 0.000000 1.000000 -0.000000 0.875000 0.750000 255 0 2 255
3.181643 0.000000 -1.590822 0.000000 1.000000 -0.000000 1.000000 0.750000 255 0 2 255
4 0 1 2 3
4 4 5 6 7
4 8 9 10 11
4 12 13 14 15
4 16 17 18 19
4 20 21 22 23
4 24 25 26 27
4 28 29 30 31
4 32 33 34 35
4 36 37 38 39
4 40 41 42 43
4 44 45 46 47
4 48 49 50 51
4 52 53 54 55
4 56 57 58 59
4 60 61 62 63
4 64 65 66 67
4 68 69 70 71
4 72 73 74 75
4 76 77 78 79
4 80 81 82 83
4 84 85 86 87
4 88 89 90 91
4 92 93 94 95
4 96 97 98 99
4 100 101 102 103
4 104 105 106 107
4 108 109 110 111
4 112 113 114 115
4 116 117 118 119
4 120 121 122 123
4 124 40 43 125
4 126 127 40 124
4 128 129 130 131
4 132 133 134 135
4 136 137 138 139
4 137 140 141 138
4 142 143 144 145
4 146 147 143 142
4 147 136 139 143
4 148 149 150 151
4 145 144 152 153
4 154 155 156 157
4 158 159 160 161
4 162 163 164 165
4 166 167 168 169
4 141 170 171 172
4 140 173 170 141
4 174 175 176 177
4 178 179 180 181
4 172 171 182 183
4 184 185 186 187
4 188 189 190 191
4 192 193 194 195
4 196 197 198 199
4 200 201 202 203
4 204 205 206 207
4 208 209 210 211
4 41 212 213 42
4 214 215 216 217
4 218 219 220 221
4 222 0 3 223
4 224 225 0 222
4 225 226 1 0
