ply
format ascii 1.0
comment Created by Blender 2.83.5 - www.blender.org, source file: ''
element vertex 235
property float x
property float y
property float z
property float nx
property float ny
property float nz
property float s
property float t
element face 114
property list uchar uint vertex_indices
end_header
-1.000000 0.500000 0.500000 -1.000000 -0.000000 0.000000 0.562500 0.187500
-1.000000 0.500000 1.000000 -1.000000 -0.000000 0.000000 0.625000 0.187500
-1.000000 1.000000 1.000000 -1.000000 -0.000000 0.000000 0.625000 0.250000
-1.000000 1.000000 0.500000 -1.000000 -0.000000 0.000000 0.562500 0.250000
0.500000 1.000000 0.500000 0.000000 1.000000 0.000000 0.562500 0.437500
0.500000 1.000000 1.000000 0.000000 1.000000 0.000000 0.625000 0.437500
1.000000 1.000000 1.000000 0.000000 1.000000 0.000000 0.625000 0.500000
1.000000 1.000000 0.500000 0.000000 1.000000 0.000000 0.562500 0.500000
1.000000 -0.500000 0.500000 1.000000 -0.000000 0.000000 0.562500 0.687500
1.000000 -0.500000 1.000000 1.000000 -0.000000 0.000000 0.625000 0.687500
1.000000 -1.000000 1.000000 1.000000 -0.000000 0.000000 0.625000 0.750000
1.000000 -1.000000 0.500000 1.000000 -0.000000 0.000000 0.562500 0.750000
-0.500000 -1.000000 0.500000 0.000000 -1.000000 0.000000 0.562500 0.937500
-0.500000 -1.000000 1.000000 0.000000 -1.000000 0.000000 0.625000 0.937500
-1.000000 -1.000000 1.000000 0.000000 -1.000000 0.000000 0.625000 1.000000
-1.000000 -1.000000 0.500000 0.000000 -1.000000 0.000000 0.562500 1.000000
0.500000 -0.500000 -1.000000 0.000000 0.000000 -1.000000 0.312500 0.687500
1.000000 -0.500000 -1.000000 0.000000 0.000000 -1.000000 0.375000 0.687500
1.000000 -1.000000 -1.000000 0.000000 0.000000 -1.000000 0.375000 0.750000
0.500000 -1.000000 -1.000000 0.000000 0.000000 -1.000000 0.312500 0.750000
-0.500000 -0.500000 1.000000 0.000000 -0.000000 1.000000 0.812500 0.687500
-1.000000 -0.500000 1.000000 0.000000 -0.000000 1.000000 0.875000 0.687500
-1.000000 -1.000000 1.000000 0.000000 -0.000000 1.000000 0.875000 0.750000
-0.500000 -1.000000 1.000000 0.000000 -0.000000 1.000000 0.812500 0.750000
0.500000 -0.500000 1.000000 0.000000 -0.000000 1.000000 0.687500 0.687500
0.000000 -0.500000 1.000000 0.000000 -0.000000 1.000000 0.750000 0.687500
0.000000 -1.000000 1.000000 0.000000 -0.000000 1.000000 0.750000 0.750000
0.500000 -1.000000 1.000000 0.000000 -0.000000 1.000000 0.687500 0.750000
-0.500000 0.500000 1.000000 0.000000 -0.000000 1.000000 0.812500 0.562500
-1.000000 0.500000 1.000000 0.000000 -0.000000 1.000000 0.875000 0.562500
-1.000000 0.000000 1.000000 0.000000 -0.000000 1.000000 0.875000 0.625000
-0.500000 0.000000 1.000000 0.000000 -0.000000 1.000000 0.812500 0.625000
-0.500000 -0.500000 -1.000000 0.000000 0.000000 -1.000000 0.187500 0.687500
0.000000 -0.500000 -1.000000 0.000000 0.000000 -1.000000 0.250000 0.687500
0.000000 -1.000000 -1.000000 0.000000 0.000000 -1.000000 0.250000 0.750000
-0.500000 -1.000000 -1.000000 0.000000 0.000000 -1.000000 0.187500 0.750000
-0.500000 0.500000 -1.000000 0.000000 0.000000 -1.000000 0.187500 0.562500
0.000000 0.500000 -1.000000 0.000000 0.000000 -1.000000 0.250000 0.562500
0.000000 0.000000 -1.000000 0.000000 0.000000 -1.000000 0.250000 0.625000
-0.500000 0.000000 -1.000000 0.000000 0.000000 -1.000000 0.187500 0.625000
0.500000 0.500000 -1.000000 0.000000 0.000000 -1.000000 0.312500 0.562500
1.000000 0.500000 -1.000000 0.000000 0.000000 -1.000000 0.375000 0.562500
1.000000 0.000000 -1.000000 0.000000 0.000000 -1.000000 0.375000 0.625000
0.500000 0.000000 -1.000000 0.000000 0.000000 -1.000000 0.312500 0.625000
-0.500000 -1.000000 -0.500000 0.000000 -1.000000 0.000000 0.437500 0.937500
-0.500000 -1.000000 0.000000 0.000000 -1.000000 0.000000 0.500000 0.937500
-1.000000 -1.000000 0.000000 0.000000 -1.000000 0.000000 0.500000 1.000000
-1.000000 -1.000000 -0.500000 0.000000 -1.000000 0.000000 0.437500 1.000000
0.500000 -1.000000 -0.500000 0.000000 -1.000000 0.000000 0.437500 0.812500
0.500000 -1.000000 0.000000 0.000000 -1.000000 0.000000 0.500000 0.812500
0.000000 -1.000000 0.000000 0.000000 -1.000000 0.000000 0.500000 0.875000
0.000000 -1.000000 -0.500000 0.000000 -1.000000 0.000000 0.437500 0.875000
0.500000 -1.000000 0.500000 0.000000 -1.000000 0.000000 0.562500 0.812500
0.500000 -1.000000 1.000000 0.000000 -1.000000 0.000000 0.625000 0.812500
0.000000 -1.000000 1.000000 0.000000 -1.000000 0.000000 0.625000 0.875000
0.000000 -1.000000 0.500000 0.000000 -1.000000 0.000000 0.562500 0.875000
1.000000 -0.500000 -0.500000 1.000000 -0.000000 0.000000 0.437500 0.687500
1.000000 -0.500000 0.000000 1.000000 -0.000000 0.000000 0.500000 0.687500
1.000000 -1.000000 0.000000 1.000000 -0.000000 0.000000 0.500000 0.750000
1.000000 -1.000000 -0.500000 1.000000 -0.000000 0.000000 0.437500 0.750000
1.000000 0.500000 0.000000 -0.169460 0.985537 0.000000 0.500000 0.562500
1.000000 0.500000 0.500000 -0.169460 0.985537 0.000000 0.562500 0.562500
2.358332 0.733561 0.733561 -0.169460 0.985537 0.000000 0.562500 0.562500
2.358332 0.733561 0.000000 -0.169460 0.985537 0.000000 0.500000 0.562500
2.358332 0.733561 -0.733561 -0.169460 0.985537 0.000000 0.437500 0.562500
1.000000 0.500000 -0.500000 -0.169460 0.985537 0.000000 0.437500 0.562500
1.000000 0.500000 0.500000 1.000000 -0.000000 0.000000 0.562500 0.562500
1.000000 0.500000 1.000000 1.000000 -0.000000 0.000000 0.625000 0.562500
1.000000 0.000000 1.000000 1.000000 -0.000000 0.000000 0.625000 0.625000
1.000000 0.000000 0.500000 1.000000 -0.000000 0.000000 0.562500 0.625000
0.500000 1.000000 -0.500000 0.000000 1.000000 0.000000 0.437500 0.437500
0.500000 1.000000 0.000000 0.000000 1.000000 0.000000 0.500000 0.437500
1.000000 1.000000 0.000000 0.000000 1.000000 0.000000 0.500000 0.500000
1.000000 1.000000 -0.500000 0.000000 1.000000 0.000000 0.437500 0.500000
-0.500000 1.000000 -0.500000 0.000000 1.000000 0.000000 0.437500 0.312500
-0.500000 1.000000 0.000000 0.000000 1.000000 0.000000 0.500000 0.312500
0.000000 1.000000 0.000000 0.000000 1.000000 0.000000 0.500000 0.375000
0.000000 1.000000 -0.500000 0.000000 1.000000 0.000000 0.437500 0.375000
-0.500000 1.000000 0.500000 0.000000 1.000000 0.000000 0.562500 0.312500
-0.500000 1.000000 1.000000 0.000000 1.000000 0.000000 0.625000 0.312500
0.000000 1.000000 1.000000 0.000000 1.000000 0.000000 0.625000 0.375000
0.000000 1.000000 0.500000 0.000000 1.000000 0.000000 0.562500 0.375000
-1.000000 0.500000 -0.500000 -1.000000 -0.000000 0.000000 0.437500 0.187500
-1.000000 0.500000 0.000000 -1.000000 -0.000000 0.000000 0.500000 0.187500
-1.000000 1.000000 0.000000 -1.000000 -0.000000 0.000000 0.500000 0.250000
-1.000000 1.000000 -0.500000 -1.000000 -0.000000 0.000000 0.437500 0.250000
-1.000000 -0.500000 -0.500000 -1.000000 -0.000000 0.000000 0.437500 0.062500
-1.000000 -0.500000 0.000000 -1.000000 -0.000000 0.000000 0.500000 0.062500
-1.000000 0.000000 0.000000 -1.000000 -0.000000 0.000000 0.500000 0.125000
-1.000000 0.000000 -0.500000 -1.000000 -0.000000 0.000000 0.437500 0.125000
-1.000000 -0.500000 0.500000 -1.000000 -0.000000 0.000000 0.562500 0.062500
-1.000000 -0.500000 1.000000 -1.000000 -0.000000 0.000000 0.625000 0.062500
-1.000000 0.000000 1.000000 -1.000000 -0.000000 0.000000 0.625000 0.125000
-1.000000 0.000000 0.500000 -1.000000 -0.000000 0.000000 0.562500 0.125000
-1.000000 -1.000000 0.000000 -1.000000 -0.000000 0.000000 0.500000 0.000000
-1.000000 -1.000000 0.500000 -1.000000 -0.000000 0.000000 0.562500 0.000000
-1.000000 -1.000000 1.000000 -1.000000 -0.000000 0.000000 0.625000 0.000000
-1.000000 -0.500000 -1.000000 -1.000000 -0.000000 0.000000 0.375000 0.062500
-1.000000 0.000000 -1.000000 -1.000000 -0.000000 0.000000 0.375000 0.125000
-1.000000 -1.000000 -1.000000 -1.000000 -0.000000 0.000000 0.375000 0.000000
-1.000000 -1.000000 -0.500000 -1.000000 -0.000000 0.000000 0.437500 0.000000
-1.000000 0.500000 -1.000000 -1.000000 -0.000000 0.000000 0.375000 0.187500
-1.000000 1.000000 -1.000000 -1.000000 -0.000000 0.000000 0.375000 0.250000
-1.000000 1.000000 0.000000 0.000000 1.000000 0.000000 0.500000 0.250000
-1.000000 1.000000 0.500000 0.000000 1.000000 0.000000 0.562500 0.250000
-1.000000 1.000000 1.000000 0.000000 1.000000 0.000000 0.625000 0.250000
-0.500000 1.000000 -1.000000 0.000000 1.000000 0.000000 0.375000 0.312500
0.000000 1.000000 -1.000000 0.000000 1.000000 0.000000 0.375000 0.375000
-1.000000 1.000000 -1.000000 0.000000 1.000000 0.000000 0.375000 0.250000
-1.000000 1.000000 -0.500000 0.000000 1.000000 0.000000 0.437500 0.250000
0.500000 1.000000 -1.000000 0.000000 1.000000 0.000000 0.375000 0.437500
1.000000 1.000000 -1.000000 0.000000 1.000000 0.000000 0.375000 0.500000
1.000000 1.000000 0.000000 1.000000 -0.000000 0.000000 0.500000 0.500000
1.000000 1.000000 0.500000 1.000000 -0.000000 0.000000 0.562500 0.500000
1.000000 0.500000 0.000000 1.000000 -0.000000 0.000000 0.500000 0.562500
1.000000 1.000000 1.000000 1.000000 -0.000000 0.000000 0.625000 0.500000
1.000000 0.500000 -1.000000 1.000000 -0.000000 0.000000 0.375000 0.562500
1.000000 0.500000 -0.500000 1.000000 -0.000000 0.000000 0.437500 0.562500
1.000000 0.000000 -0.500000 1.000000 -0.000000 0.000000 0.437500 0.625000
1.000000 0.000000 -1.000000 1.000000 -0.000000 0.000000 0.375000 0.625000
1.000000 1.000000 -1.000000 1.000000 -0.000000 0.000000 0.375000 0.500000
1.000000 1.000000 -0.500000 1.000000 -0.000000 0.000000 0.437500 0.500000
1.000000 -0.500000 -1.000000 1.000000 -0.000000 0.000000 0.375000 0.687500
1.000000 -1.000000 -1.000000 1.000000 -0.000000 0.000000 0.375000 0.750000
1.000000 0.500000 0.500000 -0.169460 0.000000 0.985537 0.562500 0.562500
1.000000 0.000000 0.500000 -0.169460 0.000000 0.985537 0.562500 0.625000
1.000000 -0.500000 0.500000 -0.169460 0.000000 0.985537 0.562500 0.687500
2.358332 -0.733561 0.733561 -0.169460 0.000000 0.985537 0.562500 0.687500
2.358332 0.000000 0.733561 -0.169460 0.000000 0.985537 0.562500 0.625000
2.358332 0.733561 0.733561 -0.169460 0.000000 0.985537 0.562500 0.562500
1.000000 -1.000000 0.000000 0.000000 -1.000000 0.000000 0.500000 0.750000
1.000000 -1.000000 0.500000 0.000000 -1.000000 0.000000 0.562500 0.750000
1.000000 -1.000000 1.000000 0.000000 -1.000000 0.000000 0.625000 0.750000
0.500000 -1.000000 -1.000000 0.000000 -1.000000 0.000000 0.375000 0.812500
0.000000 -1.000000 -1.000000 0.000000 -1.000000 0.000000 0.375000 0.875000
1.000000 -1.000000 -1.000000 0.000000 -1.000000 0.000000 0.375000 0.750000
1.000000 -1.000000 -0.500000 0.000000 -1.000000 0.000000 0.437500 0.750000
-0.500000 -1.000000 -1.000000 0.000000 -1.000000 0.000000 0.375000 0.937500
-1.000000 -1.000000 -1.000000 0.000000 -1.000000 0.000000 0.375000 1.000000
0.000000 1.000000 -1.000000 0.000000 0.000000 -1.000000 0.250000 0.500000
0.500000 1.000000 -1.000000 0.000000 0.000000 -1.000000 0.312500 0.500000
1.000000 1.000000 -1.000000 0.000000 0.000000 -1.000000 0.375000 0.500000
-1.000000 0.500000 -1.000000 0.000000 0.000000 -1.000000 0.125000 0.562500
-1.000000 0.000000 -1.000000 0.000000 0.000000 -1.000000 0.125000 0.625000
-1.000000 1.000000 -1.000000 0.000000 0.000000 -1.000000 0.125000 0.500000
-0.500000 1.000000 -1.000000 0.000000 0.000000 -1.000000 0.187500 0.500000
-1.000000 -0.500000 -1.000000 0.000000 0.000000 -1.000000 0.125000 0.687500
-1.000000 -1.000000 -1.000000 0.000000 0.000000 -1.000000 0.125000 0.750000
0.000000 1.000000 1.000000 0.000000 -0.000000 1.000000 0.750000 0.500000
-0.500000 1.000000 1.000000 0.000000 -0.000000 1.000000 0.812500 0.500000
0.000000 0.500000 1.000000 0.000000 -0.000000 1.000000 0.750000 0.562500
-1.000000 1.000000 1.000000 0.000000 -0.000000 1.000000 0.875000 0.500000
1.000000 1.000000 1.000000 0.000000 -0.000000 1.000000 0.625000 0.500000
0.500000 1.000000 1.000000 0.000000 -0.000000 1.000000 0.687500 0.500000
0.500000 0.500000 1.000000 0.000000 -0.000000 1.000000 0.687500 0.562500
1.000000 0.500000 1.000000 0.000000 -0.000000 1.000000 0.625000 0.562500
1.000000 -0.500000 1.000000 0.000000 -0.000000 1.000000 0.625000 0.687500
1.000000 -1.000000 1.000000 0.000000 -0.000000 1.000000 0.625000 0.750000
1.000000 0.000000 -0.500000 -0.169460 0.000000 -0.985537 0.437500 0.625000
1.000000 0.500000 -0.500000 -0.169460 0.000000 -0.985537 0.437500 0.562500
2.358332 0.733561 -0.733561 -0.169460 0.000000 -0.985537 0.437500 0.562500
2.358332 0.000000 -0.733561 -0.169460 0.000000 -0.985537 0.437500 0.625000
2.358332 -0.733561 -0.733561 -0.169460 0.000000 -0.985537 0.437500 0.687500
1.000000 -0.500000 -0.500000 -0.169460 0.000000 -0.985537 0.437500 0.687500
2.358332 -0.733561 -0.733561 0.000000 0.000000 0.000000 0.437500 0.687500
2.358332 0.000000 -0.733561 0.000000 0.000000 0.000000 0.437500 0.625000
2.358332 0.000000 -0.733561 0.000000 0.000000 0.000000 0.437500 0.625000
2.358332 -0.733561 -0.733561 0.000000 0.000000 0.000000 0.437500 0.687500
2.358332 -0.733561 0.733561 0.000000 0.000000 0.000000 0.562500 0.687500
2.358332 -0.733561 0.000000 0.000000 0.000000 0.000000 0.500000 0.687500
2.358332 -0.733561 0.000000 0.000000 0.000000 0.000000 0.500000 0.687500
2.358332 -0.733561 0.733561 0.000000 0.000000 0.000000 0.562500 0.687500
2.358332 0.733561 -0.733561 0.000000 0.000000 0.000000 0.437500 0.562500
2.358332 0.733561 -0.733561 0.000000 0.000000 0.000000 0.437500 0.562500
2.358332 0.733561 0.733561 0.000000 0.000000 0.000000 0.562500 0.562500
2.358332 0.000000 0.733561 0.000000 0.000000 0.000000 0.562500 0.625000
2.358332 0.000000 0.733561 0.000000 0.000000 0.000000 0.562500 0.625000
2.358332 0.733561 0.733561 0.000000 0.000000 0.000000 0.562500 0.562500
1.000000 -0.500000 0.500000 -0.169460 -0.985537 0.000000 0.562500 0.687500
1.000000 -0.500000 0.000000 -0.169460 -0.985537 0.000000 0.500000 0.687500
1.000000 -0.500000 -0.500000 -0.169460 -0.985537 0.000000 0.437500 0.687500
2.358332 -0.733561 -0.733561 -0.169460 -0.985537 0.000000 0.437500 0.687500
2.358332 -0.733561 0.000000 -0.169460 -0.985537 0.000000 0.500000 0.687500
2.358332 -0.733561 0.733561 -0.169460 -0.985537 0.000000 0.562500 0.687500
2.358332 0.733561 0.000000 0.000000 0.000000 0.000000 0.500000 0.562500
2.358332 0.733561 0.000000 0.000000 0.000000 0.000000 0.500000 0.562500
2.358332 -0.316792 0.000000 -0.000000 -1.000000 0.000000 0.500000 0.687500
2.358332 -0.316792 -0.316792 -0.000000 -1.000000 0.000000 0.437500 0.687500
3.540722 -0.316792 -0.316792 -0.000000 -1.000000 0.000000 0.437500 0.687500
3.540722 -0.316792 0.000000 -0.000000 -1.000000 0.000000 0.500000 0.687500
2.358332 0.000000 0.316792 0.000000 0.000000 1.000000 0.562500 0.625000
2.358332 -0.316792 0.316792 0.000000 0.000000 1.000000 0.562500 0.687500
3.540722 -0.316792 0.316792 0.000000 0.000000 1.000000 0.562500 0.687500
3.540722 0.000000 0.316792 0.000000 0.000000 1.000000 0.562500 0.625000
2.358332 0.316792 -0.316792 0.000000 1.000000 0.000000 0.437500 0.562500
2.358332 0.316792 0.000000 0.000000 1.000000 0.000000 0.500000 0.562500
3.540722 0.316792 0.000000 0.000000 1.000000 0.000000 0.500000 0.562500
3.540722 0.316792 -0.316792 0.000000 1.000000 0.000000 0.437500 0.562500
2.358332 0.316792 0.316792 0.000000 1.000000 0.000000 0.562500 0.562500
3.540722 0.316792 0.316792 0.000000 1.000000 0.000000 0.562500 0.562500
2.358332 -0.733561 -0.733561 1.000000 0.000000 0.000000 0.437500 0.687500
2.358332 0.000000 -0.733561 1.000000 0.000000 0.000000 0.437500 0.625000
2.358332 0.733561 -0.733561 1.000000 0.000000 0.000000 0.437500 0.562500
2.358332 0.316792 -0.316792 1.000000 0.000000 0.000000 0.437500 0.562500
2.358332 0.000000 -0.316792 1.000000 0.000000 0.000000 0.437500 0.625000
2.358332 -0.316792 -0.316792 1.000000 0.000000 0.000000 0.437500 0.687500
3.540722 0.316792 -0.316792 1.000000 -0.000000 0.000000 0.437500 0.562500
3.540722 0.316792 0.000000 1.000000 -0.000000 0.000000 0.500000 0.562500
3.540722 0.000000 0.000000 1.000000 -0.000000 0.000000 0.500000 0.625000
3.540722 0.000000 -0.316792 1.000000 -0.000000 0.000000 0.437500 0.625000
3.540722 0.316792 0.316792 1.000000 -0.000000 0.000000 0.562500 0.562500
3.540722 0.000000 0.316792 1.000000 -0.000000 0.000000 0.562500 0.625000
3.540722 -0.316792 0.000000 1.000000 -0.000000 0.000000 0.500000 0.687500
3.540722 -0.316792 -0.316792 1.000000 -0.000000 0.000000 0.437500 0.687500
3.540722 -0.316792 0.316792 1.000000 -0.000000 0.000000 0.562500 0.687500
2.358332 0.316792 0.316792 0.000000 0.000000 1.000000 0.562500 0.562500
3.540722 0.316792 0.316792 0.000000 0.000000 1.000000 0.562500 0.562500
2.358332 0.000000 -0.316792 -0.000000 0.000000 -1.000000 0.437500 0.625000
2.358332 0.316792 -0.316792 -0.000000 0.000000 -1.000000 0.437500 0.562500
3.540722 0.316792 -0.316792 -0.000000 0.000000 -1.000000 0.437500 0.562500
3.540722 0.000000 -0.316792 -0.000000 0.000000 -1.000000 0.437500 0.625000
2.358332 -0.316792 0.316792 -0.000000 -1.000000 0.000000 0.562500 0.687500
3.540722 -0.316792 0.316792 -0.000000 -1.000000 0.000000 0.562500 0.687500
2.358332 -0.316792 -0.316792 -0.000000 0.000000 -1.000000 0.437500 0.687500
3.540722 -0.316792 -0.316792 -0.000000 0.000000 -1.000000 0.437500 0.687500
2.358332 0.733561 0.000000 1.000000 0.000000 0.000000 0.500000 0.562500
2.358332 0.733561 0.733561 1.000000 0.000000 0.000000 0.562500 0.562500
2.358332 0.000000 0.733561 1.000000 0.000000 0.000000 0.562500 0.625000
2.358332 -0.733561 0.733561 1.000000 0.000000 0.000000 0.562500 0.687500
2.358332 -0.733561 0.000000 1.000000 0.000000 0.000000 0.500000 0.687500
2.358332 -0.316792 0.000000 1.000000 0.000000 0.000000 0.500000 0.687500
2.358332 -0.316792 0.316792 1.000000 0.000000 0.000000 0.562500 0.687500
2.358332 0.000000 0.316792 1.000000 0.000000 0.000000 0.562500 0.625000
2.358332 0.316792 0.316792 1.000000 0.000000 0.000000 0.562500 0.562500
2.358332 0.316792 0.000000 1.000000 0.000000 0.000000 0.500000 0.562500
4 0 1 2 3
4 4 5 6 7
4 8 9 10 11
4 12 13 14 15
4 16 17 18 19
4 20 21 22 23
4 24 25 26 27
4 28 29 30 31
4 32 33 34 35
4 36 37 38 39
4 40 41 42 43
4 44 45 46 47
4 48 49 50 51
4 52 53 54 55
4 56 57 58 59
6 60 61 62 63 64 65
4 66 67 68 69
4 70 71 72 73
4 74 75 76 77
4 78 79 80 81
4 82 83 84 85
4 86 87 88 89
4 90 91 92 93
4 87 90 93 88
4 94 95 90 87
4 95 96 91 90
4 97 86 89 98
4 99 100 86 97
4 100 94 87 86
4 101 82 85 102
4 98 89 82 101
4 89 88 83 82
4 75 78 81 76
4 103 104 78 75
4 104 105 79 78
4 106 74 77 107
4 108 109 74 106
4 109 103 75 74
4 110 70 73 111
4 107 77 70 110
4 77 76 71 70
4 112 113 66 114
4 113 115 67 66
4 116 117 118 119
4 120 121 117 116
4 121 112 114 117
4 122 56 59 123
4 119 118 56 122
6 124 125 126 127 128 129
4 49 52 55 50
4 130 131 52 49
4 131 132 53 52
4 133 48 51 134
4 135 136 48 133
4 136 130 49 48
4 137 44 47 138
4 134 51 44 137
4 51 50 45 44
4 37 40 43 38
4 139 140 40 37
4 140 141 41 40
4 142 36 39 143
4 144 145 36 142
4 145 139 37 36
4 146 32 35 147
4 143 39 32 146
4 39 38 33 32
4 148 149 28 150
4 149 151 29 28
4 152 153 154 155
4 153 148 150 154
4 156 24 27 157
4 25 20 23 26
7 150 28 31 20 25 24 154
4 31 30 21 20
4 33 16 19 34
4 38 43 16 33
4 43 42 17 16
4 45 12 15 46
4 50 55 12 45
4 55 54 13 12
4 57 8 11 58
6 158 159 160 161 162 163
4 69 68 9 8
4 71 4 7 72
4 76 81 4 71
4 81 80 5 4
4 83 0 3 84
4 0 83 88 93
4 1 0 93 92
4 164 165 166 167
4 168 169 170 171
4 165 172 173 166
4 174 175 176 177
4 154 24 156 155
6 178 179 180 181 182 183
4 184 174 177 185
4 172 184 185 173
4 175 168 171 176
4 169 164 167 170
4 186 187 188 189
4 190 191 192 193
4 194 195 196 197
4 195 198 199 196
6 200 201 202 203 204 205
4 206 207 208 209
4 207 210 211 208
4 209 208 212 213
4 208 211 214 212
4 215 190 193 216
4 217 218 219 220
4 221 186 189 222
4 223 217 220 224
14 202 225 226 227 228 229 200 205 230 231 232 233 234 203
