ply
format ascii 1.0
comment Created by Blender 2.83.5 - www.blender.org, source file: ''
element vertex 113
property float x
property float y
property float z
property float nx
property float ny
property float nz
property uchar red
property uchar green
property uchar blue
property uchar alpha
element face 72
property list uchar uint vertex_indices
end_header
0.966507 0.000000 -0.966507 0.000000 1.000000 -0.000000 36 74 255 255
1.288676 0.000000 -0.966507 0.000000 1.000000 -0.000000 36 74 255 255
1.288676 0.000000 -1.288676 0.000000 1.000000 -0.000000 36 74 255 255
0.966507 0.000000 -1.288676 0.000000 1.000000 -0.000000 36 74 255 255
-0.322169 0.000000 -0.966507 0.000000 1.000000 -0.000000 36 74 255 255
0.000000 0.000000 -0.966507 0.000000 1.000000 -0.000000 36 74 255 255
0.000000 0.000000 -1.288676 0.000000 1.000000 -0.000000 36 74 255 255
-0.322169 0.000000 -1.288676 0.000000 1.000000 -0.000000 36 74 255 255
0.000000 0.000000 -0.322169 0.000000 -0.000000 -1.000000 36 74 255 255
-0.322169 0.000000 -0.322169 0.000000 -0.000000 -1.000000 36 74 255 255
-0.322169 1.966724 -0.322169 0.000000 -0.000000 -1.000000 36 74 255 255
0.000000 1.966724 -0.322169 0.000000 -0.000000 -1.000000 36 74 255 255
0.966507 0.000000 0.322169 0.000000 1.000000 -0.000000 36 74 255 255
1.288676 0.000000 0.322169 0.000000 1.000000 -0.000000 36 74 255 255
1.288676 0.000000 0.000000 0.000000 1.000000 -0.000000 36 74 255 255
0.966507 0.000000 0.000000 0.000000 1.000000 -0.000000 36 74 255 255
0.322169 0.000000 0.322169 0.000000 1.000000 -0.000000 36 74 255 255
0.644338 0.000000 0.322169 0.000000 1.000000 -0.000000 36 74 255 255
0.644338 0.000000 0.000000 0.000000 1.000000 -0.000000 36 74 255 255
0.322169 0.000000 0.000000 0.000000 1.000000 -0.000000 36 74 255 255
0.322169 0.000000 0.966507 0.000000 1.000000 -0.000000 36 74 255 255
0.644338 0.000000 0.966507 0.000000 1.000000 -0.000000 36 74 255 255
0.644338 0.000000 0.644338 0.000000 1.000000 -0.000000 36 74 255 255
0.322169 0.000000 0.644338 0.000000 1.000000 -0.000000 36 74 255 255
0.966507 0.000000 0.966507 0.000000 1.000000 -0.000000 36 74 255 255
1.288676 0.000000 0.966507 0.000000 1.000000 -0.000000 36 74 255 255
1.288676 0.000000 0.644338 0.000000 1.000000 -0.000000 36 74 255 255
0.966507 0.000000 0.644338 0.000000 1.000000 -0.000000 36 74 255 255
-0.966507 0.000000 0.322169 0.000000 1.000000 -0.000000 36 74 255 255
-0.644338 0.000000 0.322169 0.000000 1.000000 -0.000000 36 74 255 255
-0.644338 0.000000 0.000000 0.000000 1.000000 -0.000000 36 74 255 255
-0.966507 0.000000 0.000000 0.000000 1.000000 -0.000000 36 74 255 255
-0.966507 0.000000 0.966507 0.000000 1.000000 -0.000000 36 74 255 255
-0.644338 0.000000 0.966507 0.000000 1.000000 -0.000000 36 74 255 255
-0.644338 0.000000 0.644338 0.000000 1.000000 -0.000000 36 74 255 255
-0.966507 0.000000 0.644338 0.000000 1.000000 -0.000000 36 74 255 255
-0.322169 0.000000 0.966507 0.000000 1.000000 -0.000000 36 74 255 255
0.000000 0.000000 0.966507 0.000000 1.000000 -0.000000 36 74 255 255
0.000000 0.000000 0.644338 0.000000 1.000000 -0.000000 36 74 255 255
-0.322169 0.000000 0.644338 0.000000 1.000000 -0.000000 36 74 255 255
-0.966507 0.000000 -0.966507 0.000000 1.000000 -0.000000 36 74 255 255
-0.644338 0.000000 -0.966507 0.000000 1.000000 -0.000000 36 74 255 255
-0.644338 0.000000 -1.288676 0.000000 1.000000 -0.000000 36 74 255 255
-0.966507 0.000000 -1.288676 0.000000 1.000000 -0.000000 36 74 255 255
-0.966507 0.000000 -0.322169 0.000000 1.000000 -0.000000 36 74 255 255
-0.644338 0.000000 -0.322169 0.000000 1.000000 -0.000000 36 74 255 255
-0.644338 0.000000 -0.644338 0.000000 1.000000 -0.000000 36 74 255 255
-0.966507 0.000000 -0.644338 0.000000 1.000000 -0.000000 36 74 255 255
-0.322169 0.000000 -0.322169 0.000000 1.000000 -0.000000 36 74 255 255
0.000000 0.000000 -0.322169 0.000000 1.000000 -0.000000 36 74 255 255
0.000000 0.000000 -0.644338 0.000000 1.000000 -0.000000 36 74 255 255
-0.322169 0.000000 -0.644338 0.000000 1.000000 -0.000000 36 74 255 255
0.322169 0.000000 -0.966507 0.000000 1.000000 -0.000000 36 74 255 255
0.644338 0.000000 -0.966507 0.000000 1.000000 -0.000000 36 74 255 255
0.644338 0.000000 -1.288676 0.000000 1.000000 -0.000000 36 74 255 255
0.322169 0.000000 -1.288676 0.000000 1.000000 -0.000000 36 74 255 255
0.322169 0.000000 -0.322169 0.000000 1.000000 -0.000000 36 74 255 255
0.644338 0.000000 -0.322169 0.000000 1.000000 -0.000000 36 74 255 255
0.644338 0.000000 -0.644338 0.000000 1.000000 -0.000000 36 74 255 255
0.322169 0.000000 -0.644338 0.000000 1.000000 -0.000000 36 74 255 255
0.966507 0.000000 -0.322169 0.000000 1.000000 -0.000000 36 74 255 255
1.288676 0.000000 -0.322169 0.000000 1.000000 -0.000000 36 74 255 255
1.288676 0.000000 -0.644338 0.000000 1.000000 -0.000000 36 74 255 255
0.966507 0.000000 -0.644338 0.000000 1.000000 -0.000000 36 74 255 255
0.322169 0.000000 -0.322169 0.000000 -0.000000 -1.000000 36 74 255 255
0.322169 1.966724 -0.322169 0.000000 -0.000000 -1.000000 36 74 255 255
-0.322169 0.000000 0.000000 0.000000 1.000000 -0.000000 36 74 255 255
-0.322169 0.000000 0.000000 -1.000000 -0.000000 0.000000 36 74 255 255
-0.322169 0.000000 0.322169 -1.000000 -0.000000 0.000000 36 74 255 255
-0.322169 1.966724 0.322169 -1.000000 -0.000000 0.000000 36 74 255 255
-0.322169 1.966724 0.000000 -1.000000 -0.000000 0.000000 36 74 255 255
-1.288676 0.000000 -0.322169 0.000000 1.000000 -0.000000 36 74 255 255
-1.288676 0.000000 -0.644338 0.000000 1.000000 -0.000000 36 74 255 255
-1.288676 0.000000 0.000000 0.000000 1.000000 -0.000000 36 74 255 255
-1.288676 0.000000 -0.966507 0.000000 1.000000 -0.000000 36 74 255 255
-1.288676 0.000000 -1.288676 0.000000 1.000000 -0.000000 36 74 255 255
-0.644338 0.000000 1.288676 0.000000 1.000000 -0.000000 36 74 255 255
-0.322169 0.000000 1.288676 0.000000 1.000000 -0.000000 36 74 255 255
0.000000 0.000000 1.288676 0.000000 1.000000 -0.000000 36 74 255 255
-1.288676 0.000000 0.966507 0.000000 1.000000 -0.000000 36 74 255 255
-1.288676 0.000000 0.644338 0.000000 1.000000 -0.000000 36 74 255 255
-1.288676 0.000000 1.288676 0.000000 1.000000 -0.000000 36 74 255 255
-0.966507 0.000000 1.288676 0.000000 1.000000 -0.000000 36 74 255 255
-1.288676 0.000000 0.322169 0.000000 1.000000 -0.000000 36 74 255 255
0.644338 0.000000 1.288676 0.000000 1.000000 -0.000000 36 74 255 255
0.966507 0.000000 1.288676 0.000000 1.000000 -0.000000 36 74 255 255
1.288676 0.000000 1.288676 0.000000 1.000000 -0.000000 36 74 255 255
0.322169 0.000000 1.288676 0.000000 1.000000 -0.000000 36 74 255 255
0.322169 0.000000 0.000000 1.000000 0.000000 0.000000 36 74 255 255
0.322169 0.000000 -0.322169 1.000000 0.000000 0.000000 36 74 255 255
0.322169 1.966724 -0.322169 1.000000 0.000000 0.000000 36 74 255 255
0.322169 1.966724 0.000000 1.000000 0.000000 0.000000 36 74 255 255
0.000000 0.000000 0.322169 0.000000 1.000000 -0.000000 36 74 255 255
-0.322169 0.000000 0.322169 0.000000 1.000000 -0.000000 36 74 255 255
-0.322169 1.966724 0.322169 0.000000 1.000000 -0.000000 36 74 255 255
0.000000 1.966724 0.322169 0.000000 1.000000 -0.000000 36 74 255 255
0.000000 1.966724 0.000000 0.000000 1.000000 -0.000000 36 74 255 255
-0.322169 1.966724 0.000000 0.000000 1.000000 -0.000000 36 74 255 255
0.322169 1.966724 0.000000 0.000000 1.000000 -0.000000 36 74 255 255
0.322169 1.966724 -0.322169 0.000000 1.000000 -0.000000 36 74 255 255
0.000000 1.966724 -0.322169 0.000000 1.000000 -0.000000 36 74 255 255
-0.322169 1.966724 -0.322169 0.000000 1.000000 -0.000000 36 74 255 255
0.322169 1.966724 0.322169 0.000000 1.000000 -0.000000 36 74 255 255
0.000000 0.000000 0.322169 0.000000 0.000000 1.000000 36 74 255 255
0.322169 0.000000 0.322169 0.000000 0.000000 1.000000 36 74 255 255
0.322169 1.966724 0.322169 0.000000 0.000000 1.000000 36 74 255 255
0.000000 1.966724 0.322169 0.000000 0.000000 1.000000 36 74 255 255
-0.322169 0.000000 -0.322169 -1.000000 -0.000000 0.000000 36 74 255 255
-0.322169 1.966724 -0.322169 -1.000000 -0.000000 0.000000 36 74 255 255
-0.322169 0.000000 0.322169 0.000000 0.000000 1.000000 36 74 255 255
-0.322169 1.966724 0.322169 0.000000 0.000000 1.000000 36 74 255 255
0.322169 0.000000 0.322169 1.000000 0.000000 0.000000 36 74 255 255
0.322169 1.966724 0.322169 1.000000 0.000000 0.000000 36 74 255 255
4 0 1 2 3
4 4 5 6 7
4 8 9 10 11
4 12 13 14 15
4 16 17 18 19
4 20 21 22 23
4 24 25 26 27
4 28 29 30 31
4 32 33 34 35
4 36 37 38 39
4 40 41 42 43
4 44 45 46 47
4 48 49 50 51
4 52 53 54 55
4 56 57 58 59
4 60 61 62 63
4 57 60 63 58
4 18 15 60 57
4 15 14 61 60
4 49 56 59 50
4 64 8 11 65
4 19 18 57 56
4 5 52 55 6
4 50 59 52 5
4 59 58 53 52
4 45 48 51 46
4 30 66 48 45
4 67 68 69 70
4 71 44 47 72
4 73 31 44 71
4 31 30 45 44
4 74 40 43 75
4 72 47 40 74
4 47 46 41 40
4 33 36 39 34
4 76 77 36 33
4 77 78 37 36
4 79 32 35 80
4 81 82 32 79
4 82 76 33 32
4 83 28 31 73
4 80 35 28 83
4 35 34 29 28
4 21 24 27 22
4 84 85 24 21
4 85 86 25 24
4 37 20 23 38
4 78 87 20 37
4 87 84 21 20
4 88 89 90 91
4 38 23 16 92
4 23 22 17 16
4 17 12 15 18
4 22 27 12 17
4 27 26 13 12
4 29 93 66 30
4 34 39 93 29
4 39 38 92 93
4 41 4 7 42
4 46 51 4 41
4 51 50 5 4
4 53 0 3 54
4 0 53 58 63
4 1 0 63 62
4 94 95 96 97
4 96 98 99 100
4 97 96 100 101
4 95 102 98 96
4 103 104 105 106
4 107 67 70 108
4 109 103 106 110
4 111 88 91 112
